<svg xmlns="http://www.w3.org/2000/svg" width="180" height="180" viewBox="0 0 180 180">
    <style>
        path, polygon {
            fill: #01388b;
        }
        @media (prefers-color-scheme: dark) {
            path, polygon {
                fill: #FFFFFF;
            }
        }
    </style>
    <title>East Slope Studio</title>
    <polygon points="139.328 157.714 2.286 22.283 4.018 20.571 141.061 156.003"/>
    <path d="M24.8777598,68.9145499 C25.3774225,65.6554373 23.4353813,62.2434258 18.7367736,61.5635721 C14.0386339,60.8823529 11.1852228,63.603589 10.68556,66.8613362 C10.1882365,70.1218139 12.1059496,73.5265449 16.8045573,74.2077641 C21.4984864,74.8857975 24.3804363,72.1750277 24.8777598,68.9145499 M8.40011761,66.5300553 C9.0710131,62.1337573 13.096386,58.222549 19.1147957,59.0939817 C25.1332053,59.9667799 27.8364369,64.8495328 27.1650736,69.2449207 C26.4918389,73.6412187 22.4426057,77.5487867 16.4265353,76.6773541 C10.4076577,75.8068315 7.72922211,70.9254437 8.40011761,66.5300553"/>
    <polygon points="27.265 90.304 9.756 94.171 9.224 91.64 26.732 87.771"/>
    <path d="M34.6494049 107.461198L37.9047619 112.721101 22.653587 122.057143 19.3733834 116.751024C16.9876553 112.900016 17.5554448 107.923813 22.5647835 104.85344 27.5589383 101.801369 32.2636768 103.61019 34.6494049 107.461198zM23.9046563 107.014598C20.0525222 109.374805 19.5500699 112.8689 21.282426 115.669758L23.2291985 118.815176 34.7377482 111.770704 32.8185829 108.669214C31.0839263 105.86378 27.7310236 104.671322 23.9046563 107.014598zM52.3463003 132.347997L45.7712096 142.171429 43.7478583 140.794549 50.2784943 131.033955C51.8000184 128.763953 51.4297195 126.642265 49.3642056 125.23674 47.2762351 123.817353 45.2281358 124.291868 43.7089037 126.564642L37.1741428 136.321078 35.1292517 134.93311 41.704342 125.109679C44.0585791 121.595865 47.6392011 121.279367 50.6442103 123.323894 53.6492192 125.367959 54.6959543 128.834183 52.3463003 132.347997"/>
    <polygon points="66.97 146.938 70.092 131.657 72.548 132.146 69.431 147.427 75.374 148.609 74.915 150.857 60.571 148.011 61.026 145.761"/>
    <path d="M91.2766389,145.794951 C91.7066205,147.030942 93.0853866,148.576394 95.5190655,148.111972 C97.4835906,147.737751 98.6428106,146.17426 98.340366,144.52843 C98.1048779,143.25497 97.1647483,142.427892 95.6311161,142.384873 L92.9204996,142.307623 C89.902883,142.210021 87.9406357,140.671508 87.4833246,138.204613 C86.9781868,135.458788 88.8256511,132.524697 92.5342448,131.815112 C96.7356775,131.016251 99.231303,133.384155 100.018388,135.840872 L97.8447936,137.028293 C97.3091382,135.092432 95.5992315,133.533103 92.9710587,134.03268 C90.5633425,134.491088 89.6186578,135.987045 89.9037943,137.53666 C90.139282,138.805494 91.2001167,139.740351 93.0156968,139.782907 L95.5969541,139.857381 C98.1782119,139.936019 100.251143,141.245559 100.738972,143.88823 C101.250031,146.660422 99.1802882,149.63337 95.9640787,150.24859 C92.0350286,150.996568 90.0062791,148.825257 89.2579104,146.979134 L91.2766389,145.794951 Z"/>
    <polygon points="127.807 110.629 141.061 122.837 133.497 130.743 131.797 129.175 137.642 123.069 133.566 119.316 128.265 124.854 126.545 123.269 131.844 117.731 127.789 113.993 121.944 120.099 120.245 118.534"/>
    <path d="M143.48513 101.372434C142.670138 103.320096 143.275838 104.949008 144.989447 105.632043 146.748794 106.330856 148.373696 105.587859 149.186378 103.642001L150.546546 100.390037 144.842988 98.1213714 143.48513 101.372434zM142.779635 97.2954185L135.972789 94.5862752 136.913449 92.3428571 153.55102 98.9680635 151.080634 104.877323C149.826729 107.876362 146.847665 109.041803 144.054331 107.927759 141.239744 106.809205 139.991845 103.963004 141.246212 100.961712L142.779635 97.2954185zM157.710599 74.0270903C157.839614 78.4819063 154.578717 83.0311269 148.498658 83.1953093 142.4186 83.3631406 138.878638 78.9995369 138.75196 74.5442651 138.622946 70.0894491 141.907682 65.5415968 147.988208 65.3760462 154.068267 65.2095831 157.582052 69.5713623 157.710599 74.0270903zM148.060195 67.8789157C143.314225 68.006613 140.96578 71.1762455 141.060672 74.4826967 141.155563 77.7850432 143.680702 80.8215054 148.426672 80.693808 153.172642 80.5638304 155.494442 77.3932859 155.39955 74.090939 155.304659 70.7854002 152.805698 67.7489376 148.060195 67.8789157z"/>
    <polygon points="132.272 48.994 148.814 41.6 149.85 43.858 135.453 50.292 138.993 58.008 136.847 58.971"/>
    <path d="M134.312796,30.0339959 C135.076961,28.9893724 135.541034,26.9945136 133.741414,25.2692057 C132.284158,23.8738029 130.318232,23.8070958 129.140164,24.9805956 C128.230598,25.8872671 128.098669,27.1206671 128.960388,28.3985384 L130.481285,30.6552338 C132.1657,33.1714969 132.046779,35.640112 130.281534,37.4003616 C128.318396,39.3575559 124.822282,39.4973231 122.075004,36.8667051 C118.960741,33.8862154 119.447112,30.5181894 121.013535,28.4961032 L123.260506,29.5997194 C121.976522,31.1267211 121.695477,33.4002068 123.644678,35.2657356 C125.427575,36.9737995 127.210473,36.9034621 128.317467,35.8007535 C129.227033,34.894082 129.374291,33.5000405 128.348591,31.9975433 L126.902949,29.8443119 C125.455448,27.6933495 125.321661,25.2655754 127.213724,23.3791723 C129.19405,21.4051877 132.850894,21.4215242 135.238156,23.7040856 C138.150809,26.4944375 137.549697,29.3687405 136.468717,31.0173579 L134.312796,30.0339959 Z"/>
    <polygon points="111.945 10.834 105.889 25.143 103.592 24.194 109.648 9.884 104.091 7.591 104.985 5.486 118.395 11.024 117.503 13.129"/>
    <path d="M88.3971923 7.62357266C88.2215183 6.32409056 87.1766959 4.52505645 84.671613 4.46775354 82.6460599 4.42292788 81.1747333 5.71039488 81.1369239 7.38234592 81.1074147 8.67674469 81.8686682 9.68093198 83.3782654 10.0446206L86.0498009 10.6902026C89.019198 11.4185041 90.6445276 13.3316819 90.5891973 15.8433054 90.5264897 18.6326632 88.0905697 21.1114762 84.270468 21.026446 79.9450153 20.9270901 77.9581936 18.0919825 77.6870748 15.5253667L80.0838024 14.8183227C80.2133678 16.8230003 81.588789 18.7070645 84.2981329 18.7694507 86.7769341 18.8253673 88.0191012 17.5591579 88.0536827 15.9861005 88.0827312 14.6949366 87.223727 13.5576587 85.4356337 13.1394399L82.8941249 12.5225093C80.3530768 11.9055788 78.5659059 10.1911127 78.6276911 7.50295927 78.6908603 4.68818491 81.3536348 2.21029617 84.6683855 2.28747025 88.7194915 2.37943218 90.2802696 4.92617682 90.6394558 6.88695301L88.3971923 7.62357266zM57.0283399 18.2852689L62.8661737 16.0842223 56.9867915 9.76999803 57.0283399 18.2852689zM64.5416622 17.8942756L57.0325416 20.7251041 57.0666211 26.0240215 54.5578231 26.9714286 54.7520284 7.87381682 57.4564323 6.85714286 70.7482993 20.8663722 68.2105574 21.8228933 64.5416622 17.8942756z"/>
    <polygon points="40.175 39.314 27.728 26.598 35.635 19.2 37.232 20.835 31.121 26.547 34.949 30.458 40.492 25.275 42.105 26.927 36.564 32.108 40.375 36.002 46.485 30.287 48.082 31.919"/>
</svg>
